<svg xmlns="http://www.w3.org/2000/svg" width="360" height="180" viewBox="0 0 360 180">
  <defs>
    <linearGradient id="bg" x1="0" y1="0" x2="1" y2="1">
      <stop offset="0" stop-color="#0f172a"/>
      <stop offset="1" stop-color="#1a0533"/>
    </linearGradient>
    <linearGradient id="glow" x1="0" y1="0" x2="1" y2="0">
      <stop offset="0" stop-color="#f59e0b33"/>
      <stop offset="1" stop-color="#d9770633"/>
    </linearGradient>
  </defs>
  <rect width="360" height="180" fill="url(#bg)" rx="16"/>
  <rect width="360" height="180" fill="none" stroke="#f59e0b50" stroke-width="1.5" rx="16"/>
  <rect width="360" height="80" fill="url(#glow)" rx="16"/>
  <rect y="68" width="360" height="12" fill="url(#glow)"/>

  <!-- Icon -->
  <text x="28" y="58" font-size="42" font-family="Segoe UI Emoji,Apple Color Emoji,sans-serif">⚡</text>

  <!-- Title -->
  <text x="88" y="42" font-size="17" font-weight="700" fill="white" font-family="monospace">Agentic AI</text>
  <line x1="88" y1="52" x2="340" y2="52" stroke="#f59e0b40" stroke-width="1"/>

  <!-- Accent dot -->
  <circle cx="340" cy="24" r="5" fill="#f59e0b" opacity="0.7"/>
  <circle cx="340" cy="24" r="10" fill="#f59e0b" opacity="0.15"/>

  <!-- Tags -->
  
        <rect x="15" y="128" width="80" height="22" rx="11" fill="#f59e0b18" stroke="#f59e0b40" stroke-width="1"/>
        <text x="55" y="143" font-size="9.5" fill="#f59e0b" font-family="monospace" text-anchor="middle">LangChain</text>
        <rect x="103" y="128" width="80" height="22" rx="11" fill="#f59e0b18" stroke="#f59e0b40" stroke-width="1"/>
        <text x="143" y="143" font-size="9.5" fill="#f59e0b" font-family="monospace" text-anchor="middle">n8n</text>
        <rect x="191" y="128" width="80" height="22" rx="11" fill="#f59e0b18" stroke="#f59e0b40" stroke-width="1"/>
        <text x="231" y="143" font-size="9.5" fill="#f59e0b" font-family="monospace" text-anchor="middle">AutoGPT</text>
        <rect x="279" y="128" width="80" height="22" rx="11" fill="#f59e0b18" stroke="#f59e0b40" stroke-width="1"/>
        <text x="319" y="143" font-size="9.5" fill="#f59e0b" font-family="monospace" text-anchor="middle">Tools</text>

  <!-- Bottom glow line -->
  <rect x="40" y="170" width="280" height="2" rx="1" fill="#f59e0b" opacity="0.3"/>
</svg>