<svg xmlns="http://www.w3.org/2000/svg" width="400" height="420" viewBox="0 0 400 420">
  <defs>
    <linearGradient id="bg" x1="0" y1="0" x2="0" y2="1">
      <stop offset="0" stop-color="#0f172a"/>
      <stop offset="1" stop-color="#050816"/>
    </linearGradient>
    <linearGradient id="header" x1="0" y1="0" x2="1" y2="0">
      <stop offset="0" stop-color="#00d4ff22"/>
      <stop offset="1" stop-color="#7c3aed22"/>
    </linearGradient>
  </defs>

  <!-- Background -->
  <rect width="400" height="420" fill="url(#bg)" rx="12"/>
  <rect width="400" height="420" fill="none" stroke="#00d4ff40" stroke-width="1.5" rx="12"/>

  <!-- Header band -->
  <rect width="400" height="110" fill="url(#header)" rx="12"/>
  <rect y="98" width="400" height="12" fill="url(#header)"/>
  <rect x="0" y="108" width="400" height="1" fill="#00d4ff30"/>

  <!-- Grid lines -->
  <line x1="0" y1="120" x2="400" y2="120" stroke="#1e293b" stroke-width="0.5"/><line x1="0" y1="160" x2="400" y2="160" stroke="#1e293b" stroke-width="0.5"/><line x1="0" y1="200" x2="400" y2="200" stroke="#1e293b" stroke-width="0.5"/><line x1="0" y1="240" x2="400" y2="240" stroke="#1e293b" stroke-width="0.5"/><line x1="0" y1="280" x2="400" y2="280" stroke="#1e293b" stroke-width="0.5"/><line x1="0" y1="320" x2="400" y2="320" stroke="#1e293b" stroke-width="0.5"/><line x1="0" y1="360" x2="400" y2="360" stroke="#1e293b" stroke-width="0.5"/><line x1="0" y1="400" x2="400" y2="400" stroke="#1e293b" stroke-width="0.5"/>

  <!-- Icon -->
  <text x="24" y="68" font-size="40" font-family="Segoe UI Emoji,Apple Color Emoji,sans-serif">🧠</text>

  <!-- Title -->
  <text x="80" y="48" font-size="18" font-weight="700" fill="white" font-family="monospace">ACL NLP Research</text>
  <text x="80" y="68" font-size="11" fill="#00d4ff" font-family="monospace">Hindi POS Tagging · MuRIL + CRF</text>

  <!-- Top-right accent line -->
  <rect x="340" y="0" width="3" height="110" fill="#00d4ff" rx="2" opacity="0.6"/>

  <!-- Metric pills -->
  <rect x="16" y="118" width="110" height="26" rx="13" fill="#00d4ff18" stroke="#00d4ff40" stroke-width="1"/>
  <text x="71" y="135" font-size="10" fill="#00d4ff" font-family="monospace" text-anchor="middle">F1: 0.9412</text>

  <rect x="140" y="118" width="110" height="26" rx="13" fill="#7c3aed18" stroke="#7c3aed40" stroke-width="1"/>
  <text x="195" y="135" font-size="10" fill="#7c3aed" font-family="monospace" text-anchor="middle">17 Tags</text>

  <rect x="264" y="118" width="110" height="26" rx="13" fill="#00d4ff18" stroke="#00d4ff40" stroke-width="1"/>
  <text x="319" y="135" font-size="10" fill="#00d4ff" font-family="monospace" text-anchor="middle">ACL 2025</text>

  <!-- Section label -->
  <text x="20" y="248" font-size="10" fill="#475569" font-family="monospace" letter-spacing="2">METRICS</text>
  <line x1="80" y1="243" x2="380" y2="243" stroke="#1e293b" stroke-width="1"/>

  
        <text x="20" y="260" font-size="11" fill="#94a3b8" font-family="monospace">MuRIL Encoder</text>
        <rect x="20" y="266" width="340" height="8" rx="4" fill="#1e293b"/>
        <rect x="20" y="266" width="323" height="8" rx="4" fill="url(#bar0)"/>
        <text x="370" y="274" font-size="10" fill="#00d4ff" font-family="monospace">95%</text>
        <defs>
          <linearGradient id="bar0" x1="0" y1="0" x2="1" y2="0">
            <stop offset="0" stop-color="#00d4ff"/>
            <stop offset="1" stop-color="#7c3aed"/>
          </linearGradient>
        </defs>
        <text x="20" y="296" font-size="11" fill="#94a3b8" font-family="monospace">CRF Decoder</text>
        <rect x="20" y="302" width="340" height="8" rx="4" fill="#1e293b"/>
        <rect x="20" y="302" width="299" height="8" rx="4" fill="url(#bar1)"/>
        <text x="370" y="310" font-size="10" fill="#00d4ff" font-family="monospace">88%</text>
        <defs>
          <linearGradient id="bar1" x1="0" y1="0" x2="1" y2="0">
            <stop offset="0" stop-color="#00d4ff"/>
            <stop offset="1" stop-color="#7c3aed"/>
          </linearGradient>
        </defs>
        <text x="20" y="332" font-size="11" fill="#94a3b8" font-family="monospace">lbs_weighted</text>
        <rect x="20" y="338" width="340" height="8" rx="4" fill="#1e293b"/>
        <rect x="20" y="338" width="319" height="8" rx="4" fill="url(#bar2)"/>
        <text x="370" y="346" font-size="10" fill="#00d4ff" font-family="monospace">94%</text>
        <defs>
          <linearGradient id="bar2" x1="0" y1="0" x2="1" y2="0">
            <stop offset="0" stop-color="#00d4ff"/>
            <stop offset="1" stop-color="#7c3aed"/>
          </linearGradient>
        </defs>
        <text x="20" y="368" font-size="11" fill="#94a3b8" font-family="monospace">Stanza Baseline</text>
        <rect x="20" y="374" width="340" height="8" rx="4" fill="#1e293b"/>
        <rect x="20" y="374" width="302" height="8" rx="4" fill="url(#bar3)"/>
        <text x="370" y="382" font-size="10" fill="#00d4ff" font-family="monospace">89%</text>
        <defs>
          <linearGradient id="bar3" x1="0" y1="0" x2="1" y2="0">
            <stop offset="0" stop-color="#00d4ff"/>
            <stop offset="1" stop-color="#7c3aed"/>
          </linearGradient>
        </defs>

  <!-- Bottom glow -->
  <ellipse cx="200" cy="420" rx="150" ry="20" fill="#00d4ff" opacity="0.06"/>
</svg>